<svg xmlns="http://www.w3.org/2000/svg" width="800" height="450" viewBox="0 0 800 450">
  <rect width="800" height="450" fill="#f3f4f6"/>
  <rect x="150" y="140" width="500" height="200" rx="20" fill="#e5e7eb"/>
  <!-- Car body -->
  <path d="M180 280 L180 230 C180 210 200 195 220 190 L310 165 C330 158 370 145 400 145 C430 145 470 158 490 165 L580 190 C600 195 620 210 620 230 L620 280 Z" fill="#d1d5db"/>
  <!-- Windshield area -->
  <path d="M320 165 L310 200 L490 200 L480 165 Z" fill="#bfdbfe" opacity="0.6"/>
  <!-- Windows -->
  <rect x="330" y="168" width="140" height="28" rx="4" fill="#93c5fd" opacity="0.5"/>
  <!-- Wheels -->
  <circle cx="270" cy="285" r="45" fill="#374151"/>
  <circle cx="270" cy="285" r="30" fill="#6b7280"/>
  <circle cx="270" cy="285" r="15" fill="#9ca3af"/>
  <circle cx="530" cy="285" r="45" fill="#374151"/>
  <circle cx="530" cy="285" r="30" fill="#6b7280"/>
  <circle cx="530" cy="285" r="15" fill="#9ca3af"/>
  <!-- Ground shadow -->
  <ellipse cx="400" cy="335" rx="220" ry="15" fill="#d1d5db" opacity="0.5"/>
  <!-- AB Cars text -->
  <text x="400" y="390" font-family="Arial, sans-serif" font-size="18" font-weight="bold" fill="#9ca3af" text-anchor="middle">AB Cars</text>
</svg>
